<svg xmlns="http://www.w3.org/2000/svg" width="1080" height="1080" viewBox="0 0 1080 1080">
  <defs>
    <style>
      .cls-1 {
        fill: #42ff00;
        fill-rule: evenodd;
      }
    </style>
  </defs>
  <path id="Color_Fill_1" data-name="Color Fill 1" class="cls-1" d="M498,88c13.625-.362,40.423-3.317,49,3l-20,5c124.016-1.839,250.974,69.977,305,137,14.955,18.553,33.862,49.214,50,65l4-4c16.947-8.039,29.378-19.871,52-24,31.649-5.777,39.686,11.269,51,26,41.64,54.224,25.34,114.4-11,162h4c18.65-5.6,30.77-15.971,46-21,0.33,0.667.67,1.333,1,2,6.31,27.439-5.22,49.4-23,59,1.33,1.666,2.67,3.334,4,5,23.82,11.037,37.37,56.774,20,85-6.31,10.249-16.88,16.549-25,25,6.3,17.711,30.43,42.942,24,69-8.28,33.548-56.369,43.115-62,78,5.3,10.109,14.345,12.418,23,19l-2,3c-11.932,5.3-44.345,24.489-56,4q0.5-16,1-32c-2.32-11.982-9.632-25.733-16-35,6.507-29.436-5.025-43.479-26-59l5-5c6.272-37.436,12.623-78.372,17-123h-1C901.04,645.028,770.892,720.75,670,747c1.966,12.429-2.442,14.133-8,21-13.346,5.522-65.134,35.5-84,29l-26-25c0.251,10.456.753,23.544-2,31-20.7-.34-26.962-17.413-26-40h-3c-13.16,5.272-23.738,15.01-36,19-4.478-6.2-9.492-12.8-12-21q-1-7-2-14l-31-5-70-19c-25.524-8.024-48.656-22.493-72-31-22.1-8.053-44.786-8.567-65-17-36.908-15.4-67.053-65.235-79-105h-1c6.1,49.752,26.084,88.4,58,112l-9,9-21,31c-22.87,38.121-49.671,100.541-41,155-22.211-15.973-44.637-56.352-30-93h-2l-23-6c-17.085-7.2-34.415-27.916-43-44v-1c15.1,3.462,31.963,10.948,47,2l1-2c-1.553-16.792-13.221-28.646-19-42-3.053-7.054-.653-22.106-3-27-8.363-17.441-19.97-30.846-25-55-4.788-22.992,14.887-65.4,14-67-6.426-13.2-17.583-17.39-18-38h1c31.835,17.758,52.742,27.589,92,8q2.5-19.5,5-39l33-20,15-5,23-19v1c-3.037,9.872-6.146,25.376-4,39l3,19c-3.927,17.605-17.433,33.682-21,56-5.943,37.181,30.113,65.062,49,80,40,31.632,81.559,56.818,140,71l64,6,32,11c4.022-10.567,13.464-20.736,22-27h3c0.466,9.155-.374,29.873,5,35l20,4c7.467,5.655,5.043,23.912,13,30,1.583-9.775,6.487-18.773,11-26h3c7.018,13.313,21.567,29.5,39,32l15-29c8.154,3.222,15.74,10.689,21,17,9.641-.369,31.719-55.518,35-69,11.036,7.146,13.119,20.883,22,30,78.191-41.525,180.417-72.632,205-170,10.718-42.451-12.614-83.326-30-106l-19-19-7-28c-9.34-23.662-30.407-44.5-51-57-84.829-51.483-222.632-37.942-318-8-23.6,7.411-69.845,17.965-85,33,55.174-1,126.3,43.114,103,107-10.506,28.809-115.755,81.219-160,68-21.683-6.479-32.61-25.871-43-40-21.608-29.386,1.371-94.972,21-112,15.336-13.3,37.515-22.566,57-31,115.451-49.97,291.718-112.047,435-41-21.884-22.108-64.362-38.049-97-48-10.861-3.312-51.736-6.029-58-12,6.008-23.207,8.054-44,19-61,25.261-7.257,56.7,6.106,78,12-33.087-43.668-90.564-71.662-150-89-14.981-4.37-42.287-14.024-62-10-36.337,7.418-64.219,14.343-93,27C307.665,175.6,175.421,313.618,154,461l-1-2-6-30c-10.381-17.648-61.563-51.623-90-35-9.409,59.593,24.4,90.422,49,122-35.611-6.775-92.358-58.433-83-109,3.368-18.2,11.293-27.568,19-40,8.359-13.483,12.817-26.646,25-36,23.417-17.979,68.657-22.562,88,3l2-1c19.188-102.877,177.894-191.4,271-228l42-14C478.249,89.379,489.158,91.568,498,88Zm-24,2h0Zm382,75,6,1c10.246,4.636,15.976,23.741,13,38l2-1c2.414-6.937,6.887-15.342,16-16,10.641,3.665,20.837,7.6,21,22-9.812,23.232-34.575,35.336-64,39q-0.5-1.5-1-3C835.6,220.8,839.424,180.5,856,165ZM156,216l6,2c5.15,19.08,3.088,46.4-5,61h-4c-10.352-7.823-40.017-22.978-32-41l24,5C145.575,231.087,150.68,223.167,156,216Zm205,5c27.638-.379,67.527,32.247,66,59-45.717,19.564-90.011,37.849-130,63-22.152,13.933-40.783,32.707-62,47h-3V380C254.9,300.291,291.545,254.283,361,221ZM145,244v3h1l3-2Zm589,89c49.6-1.121,87.149,26.85,79,78-2.284,14.334-.981,29.625-9,38-0.206-2.227.766-3.2-1-2l-16,30c-14.787,17.2-74.61,43.772-108,29-10.521-4.654-24.115-21.515-30-31-8.961-14.442-10.563-38.2-6-58q0.5-11.5,1-23c6.278-26.835,27.794-43.238,51-53C706.413,336.2,721.407,338.378,734,333Zm196,6c-9.018,4.53-19.5,6.072-26,13-0.226,19.494,6.886,39.577,11,50,4.445,11.263,18.011,14.421,20,31,15.422,0.068,35.486-24.721,38-40C976.866,369.505,948.843,340.316,930,339ZM713,355c-15.6,8-30.865,13.841-40,28-24.314,37.686-19.24,100.028,26,109,50.579,10.031,113.7-49.006,92-97C780.057,370.8,747.681,355.522,713,355ZM385,372l-32,6c-18.889,6.438-38.993,25.065-50,40-33.035,44.822,8.5,86.534,50,97,12.62,3.182,30.091-3.464,40-7,46.545-16.611,86.3-55.12,51-106C431.333,383.741,414.549,373.386,385,372Zm122,82c13.413,12.638,33.7,32.811,57,34,16.1-8,27.434-20.62,41-31-7.085,27.477-29.448,45.651-38,69q-0.5,26-1,52l39-4c21.986-9.619,28.981-38.551,49-50,33.609-19.222,83.7,12.076,89,39,4.873,24.76-14.307,47.689-24,60-30.076,38.2-94.787,71.414-173,56l-36-2a338.734,338.734,0,0,1-59-17c-5.53-2.131-8.258-.071-9-1-23.582-20.862-94.53-39.068-82-86,4.61-17.266,11.537-23.825,25-32,7.822-4.75,17.275-10.132,27-13,31.364-9.25,42.4,9.528,59,20,17.368,10.955,35.1,19.848,57,26,6.884,1.933,18.611,6.013,27,3l-5-1V527C533.5,519.378,498.733,477.231,507,454ZM241,485c7.443,5.251,10.772,35.795,4,45v2l-5-1c-4.021-10-13.891-27.179-8-40Zm27,18c4.53,5,9.666,31.731,4,39l-2-1c-3.173-11.014-5.96-21.093-6-36C266.674,504.544,265.509,505.615,268,503Zm243,29,9,7v1l-31,9,3-5Zm98,2,13,7h-4Zm-15,5,19,14-31-6,2-1Zm86,5-9,3c-19.054,46.769-101.178,83.423-167,56-26.56-11.066-42.987-44.644-68-50-26.753-5.729-54.106,18.7-45,45,5.611,16.207,23.569,28.426,38,36l3-2c4.66-10.955,19.166-25.325,33-27,12.937,13.129,8.428,31.219,14,53,23.645,3.488,52.222,12.26,80,8,27.962-4.288,53.37-9.467,78-14-1.522-19.714,9.252-43.78,22-53,7.643,0.211,7.895,1.907,12,5,3.13,8.241,7.1,14.974,8,26h-1c-1.219-5.964-3.936-8.992-8-12-8.06.556-8.467,3.416-13,7l-12,24c32.094-4.428,61.447-20.192,75-44C737.228,574.737,712.942,543.532,680,544Zm-152,7c1.783,4.666-4.706,9-9,11ZM98,610c-29.378,12.765-38.32,12.235-31,53h2c4.044-24.14,20.7-36.248,33-52Zm361,28-8,7v1l25,10-9-16Zm405,24c30.522,1.288,70.337,92.6,48,132l56,63c-0.891,40.488-47.786,59.719-75,75h-1c-3.983-31.071-8.831-59.9-9-97-34.973,6.092-53.987-51.313-71-73-8.877-11.316-24.184-19.8-22-39,6.906-7.956,19.529-14.85,34-12,14.659,11.976,15.739,41.771,25,59h1c48.411-14.226-16.419-70.7-13-83ZM264,691l29,12c1.79,46.137-10.893,51.4-28,85-4.716,9.263-17.938,28.2-13,42l3,4c11.408-4.36,17.152-21.175,20-34l19-2c-8.664,25.117-.723,62.328,5,83l4,1c20.786-41.765,33.514-89.122,39-146h8l17,2c13.511,75.665-5.008,173.32-34,226-8.928,16.222-66.558,22.013-77,4-13.752-15.011-1.43-75.853-1-100-14.557,8.532-51.47,42.282-78,32-28.253-11.561-16.5-47.765-9-72,13.686-44.23,43.175-74.525,69-107C245.508,710.3,258.415,704.727,264,691Zm475,45c46.109-1.448,97.8,29.887,70,74-19.244,5.57-26.418-9.319-38-17v5c8.811,21.793,25.625,19.328,45,30,34.571,19.041,72.153,50.379,57,112-2.368,9.629-5.647,18.06-12,26-12.257,15.318-54.349,28.253-78,13-28.935-18.661-58.606-77.224-47-122,15.093-10.162,30.036,8.335,39,17l2-1q-2.5-13.5-5-27c-10.084-19.646-96.746-45.2-57-95C721.459,742.907,729.207,741.114,739,736ZM404,758c63.667,1.72,18.642,104.618,15,136l14,4c14.524-24.225,2.132-98.832,34-103l1,1c35.075,17.562,12.8,143.325,6,180-3.814,20.584-2.591,49.34-20,56-11.091,5.22-25.885-1.97-29-9-6.66-25.629,14.06-57.629,5-79l-24-7c-1.715,18.017-8.792,64.35-24,70-11.714,5.45-24.879-3.81-28-11-4.141-7.5,6.284-51.521,9-65q9.5-42,19-84l10-82Zm263,46c22.19,7.521,23.681,30.685,32,52,15.487,39.683,32.814,86.07,52,124-4.112,13.1-11.974,28.15-28,29-13.992-9.553-9.134-24.3-19-38-1.642,12.273-16.616,48.45-28,46-18.049-4.91-36.419-32.33-42-50h-1c1.672,23.45,8.829,51.86,3,76-36.771,26.49-45.891-7.45-52-38-11.713-58.575-5.215-150.79,21-187h5c20.655,10.973,36.266,57.314,41,83h1C654.537,866.825,658.305,831.378,667,804ZM513,817c17.148,0.056,23.015,9.9,31,19,6.228-5.007,25.657-22.069,33-7,6.724,13.438-28.613,65.309-40,68-7.936-12.207-42.763-53.232-27-76Zm31,20q-1,2-2,4C544.04,838.91,544.883,839.627,544,837Zm-2,67,13,1c22.688,18.539,11.453,107.99-5,124-15.827.38-44.019-2.96-50-13-4.545-12.64,10.266-88.989,13-106Z"/>
</svg>
